<svg width="231" height="265" viewBox="0 0 231 265" fill="none" xmlns="http://www.w3.org/2000/svg">
<path d="M230.785 265H108.47C108.347 264.244 108.376 263.471 108.554 262.726C108.733 261.981 109.057 261.279 109.509 260.66L169.191 176.886L107.865 91.5021L2.4185 92.1118L62.4853 177.056L0 263.951L0.137415 74.6263C8.66263 36.4637 36.2775 7.31576 75.5616 1.81137C94.9523 -0.533785 114.551 -0.602001 133.957 1.60812C150.406 3.61645 165.96 10.2 178.848 20.6092C191.736 31.0185 201.442 44.8352 206.859 60.4863C211.852 73.8007 213.439 88.1504 211.476 102.233C209.513 116.316 204.062 129.686 195.618 141.129L170.334 177.095L228.076 257.76C229.895 260.298 231.615 262.292 230.785 265Z" fill="#1177DD"/>
</svg>
