<svg xmlns="http://www.w3.org/2000/svg" xmlns:xlink="http://www.w3.org/1999/xlink" width="451.188" height="518.083" viewBox="0 0 451.188 518.083">
  <defs>
    <clipPath id="clip-path">
      <rect id="Rectangle_677" data-name="Rectangle 677" width="451.188" height="518.083" fill="#f1f1f1"/>
    </clipPath>
  </defs>
  <g id="Group_279" data-name="Group 279" opacity="0.4">
    <g id="Group_261" data-name="Group 261" clip-path="url(#clip-path)">
      <path id="Path_1266" data-name="Path 1266" d="M450.907,518.084H211.936c-.52-3.277.292-6.663,3.272-10.215L330.579,345.813,210.759,178.882,4.729,180.091,122.09,346.155,0,516.031.272,145.9C16.922,71.284,70.936,14.305,147.637,3.544c36.645-5.138,76.676-4.168,114.1-.406C329.013,9.9,381.38,57.47,404.185,118.246c20.433,54.458,10.91,110.87-21.969,157.665l-49.4,70.319L445.652,503.923c3.549,4.957,6.476,8.912,5.255,14.162" transform="translate(0 -0.001)" fill="#f1f1f1"/>
    </g>
  </g>
</svg>
