<svg id="Group_264" data-name="Group 264" xmlns="http://www.w3.org/2000/svg" xmlns:xlink="http://www.w3.org/1999/xlink" width="109.66" height="103.674" viewBox="0 0 109.66 103.674">
  <defs>
    <clipPath id="clip-path">
      <rect id="Rectangle_679" data-name="Rectangle 679" width="109.66" height="103.674" fill="#17d"/>
    </clipPath>
  </defs>
  <g id="Group_263" data-name="Group 263" clip-path="url(#clip-path)">
    <path id="Path_1267" data-name="Path 1267" d="M68.387,103.674c-3.228,0-5.8-1.87-5.885-4.89l-.2-6.8H1.908A1.7,1.7,0,0,1,0,90.1L.147,69.747C.2,61.906,4.97,55.5,11.1,50.971c5.5-4.07,11.571-6.032,18.719-7.9A23.869,23.869,0,0,1,48.283.364,23.686,23.686,0,0,1,66.98,17.55c2.539,9.732-.914,19.283-8.857,25.5C70.6,46.512,73.846,47.965,82.89,56.139c6.571,1.257,13.749.075,20.584.422,3.168.161,6.178,1.924,6.179,5.469L109.66,98.3a5.287,5.287,0,0,1-5.174,5.327Zm-3.306-79.9A21.115,21.115,0,1,0,43.966,44.891,21.115,21.115,0,0,0,65.08,23.776m3.777,32.841c3.474-.219,6.451.4,9.745-.376C73.13,50.068,61.963,46.216,54.14,45.273a23.055,23.055,0,0,1-20.34-.041c-7.49,1.227-14.482,3.392-20.643,7.658-5.721,3.962-10.3,9.856-10.336,16.9l-.1,19.47H62.412l.012-26.774a5.789,5.789,0,0,1,6.433-5.869M93.09,59.569V77.955c0,.832-.7,1.694-1.5,1.523-1.922-.412-3.431-2.594-5.513-2.626-1.985-.031-6.953,4.833-6.972,1.517L79,59.418,68.638,59.27a3.122,3.122,0,0,0-3.467,3.273l.005,35.245a2.965,2.965,0,0,0,2.981,3.252l35.83-.007a3.01,3.01,0,0,0,3.04-3.212l-.007-35.3a3.018,3.018,0,0,0-3.005-3.2c-3.647.059-7.062-.318-10.925.251M90.379,75.5,90.333,59.38a40.462,40.462,0,0,0-8.646.194l.107,15.9c2.05-.216,2.818-1.871,4.276-1.845,1.565.028,2.56,1.737,4.308,1.871" transform="translate(0 0)" fill="#17d"/>
    <path id="Path_1268" data-name="Path 1268" d="M173.549,182.85c-1.737,1.676-4.223-2.71-6.158-2.536-1.8-.2-4.326,4.112-6.15,2.587-1.323-1.107,1.457-4.8.915-6.4-.584-1.729-4.553-2.749-4.552-4.592,0-2.444,6.207-.506,6.733-1.777,1.3-.95,1.168-5.36,2.881-5.509,2.425-.211,1.7,4.416,3.479,5.711,1.55,1.131,5.7-.92,6.475,1.3.682,1.949-4.366,3.27-4.539,4.864-.707,1.422,2.218,5.1.916,6.354" transform="translate(-81.321 -84.937)" fill="#17d"/>
  </g>
</svg>