<svg id="Group_270" data-name="Group 270" xmlns="http://www.w3.org/2000/svg" xmlns:xlink="http://www.w3.org/1999/xlink" width="117.66" height="99.465" viewBox="0 0 117.66 99.465">
  <defs>
    <clipPath id="clip-path">
      <rect id="Rectangle_682" data-name="Rectangle 682" width="117.66" height="99.465" fill="#17d"/>
    </clipPath>
  </defs>
  <g id="Group_269" data-name="Group 269" clip-path="url(#clip-path)">
    <path id="Path_1269" data-name="Path 1269" d="M117.652,98.884l-97.881.581C9.743,99.525.835,95.384,0,84.148L.026,14.629C.471,5.958,7.356.227,15.757.007c9.727-.255,17.251,7.047,16.57,16.978l77.29.008a9.253,9.253,0,0,1,8.043,9.145ZM29.194,73.12l-.146-59.027c-.016-6.687-6.466-10.878-12.6-11C9.265,2.948,3.176,7.9,3.169,15.3L3.111,73.516c7.117-8.4,18.2-8.6,26.083-.4m85.413,22.824L114.6,26.193a6.357,6.357,0,0,0-6.721-6.147l-75.508.009,0,62.957c.1,5.028-1.857,8.833-5.6,12.869ZM29.286,83.3A13.079,13.079,0,1,0,16.207,96.376,13.079,13.079,0,0,0,29.286,83.3" transform="translate(0 0)" fill="#17d"/>
    <path id="Path_1270" data-name="Path 1270" d="M139.9,87.318l-.062-18.174a7.348,7.348,0,0,0-7.575-7.438l-33.313.04a1.662,1.662,0,0,1-1.761-1.383c-.091-1.033.638-1.634,1.743-1.64l32.73-.159c6.079-.029,11.241,3.863,11.243,10.17l.006,17.945c0,.842-.32,1.6-.75,1.761-.75.284-2.257.262-2.262-1.122" transform="translate(-38.287 -23.074)" fill="#17d"/>
    <path id="Path_1271" data-name="Path 1271" d="M82.788,68.821A1.491,1.491,0,1,1,80.873,71.1l-5.267-4.228c-2.3.722-6.268,6.76-7.887,3.679-.957-1.822,3.926-4.127,5.152-5.932L68.278,60.6a1.526,1.526,0,0,1-.542-1.926c1.676-3.021,5.517,3.018,7.859,3.732l5.246-4.278a1.579,1.579,0,0,1,2.36.568,1.55,1.55,0,0,1-.557,1.9L78.01,64.609Z" transform="translate(-26.625 -22.772)" fill="#17d"/>
    <path id="Path_1272" data-name="Path 1272" d="M172.541,122.556c-1.8,2.29-5.1-2.968-7.59-3.975-2.387.933-5.8,6.27-7.565,3.981-1.577-2.044,3.532-4.177,4.877-6.28-1.3-2-6.548-4.18-4.756-6.344a1.443,1.443,0,0,1,1.988-.135l5.463,4.328c2.406-1.246,5.286-5.508,7.081-4.451,3.022,1.779-3.386,4.9-4.384,6.609,1.3,2.084,6.484,4.232,4.887,6.267" transform="translate(-61.89 -43.129)" fill="#17d"/>
    <path id="Path_1273" data-name="Path 1273" d="M136.44,141.947c-2.462.018-6.087.754-6.152-1.436-.068-2.294,4.48-1.588,6.3-1.354a1.971,1.971,0,0,1-.147,2.79" transform="translate(-51.331 -54.713)" fill="#17d"/>
    <path id="Path_1274" data-name="Path 1274" d="M73.589,110.513c.325.3,2.769,7.216-.256,6.5-2.071-.49-2.672-4.684-1.576-6.211a1.231,1.231,0,0,1,1.832-.29" transform="translate(-28.059 -43.428)" fill="#17d"/>
    <path id="Path_1275" data-name="Path 1275" d="M112.3,140.516c.132,2.011-6.792,2.394-6.94-.012-.124-1.993,4.2-1.7,5.837-1.367a1.6,1.6,0,0,1,1.1,1.378" transform="translate(-41.509 -54.724)" fill="#17d"/>
    <path id="Path_1276" data-name="Path 1276" d="M73.989,99.3c.235,1.745.528,5.487-1.431,5.483-2.007,0-1.7-3.587-1.462-5.454a1.522,1.522,0,0,1,1.4-1.345,1.449,1.449,0,0,1,1.49,1.316" transform="translate(-27.942 -38.602)" fill="#17d"/>
    <path id="Path_1277" data-name="Path 1277" d="M100.385,139.281c-.212,4.149-6.19,1.357-6.738.911-.49-.4-.768-1.722.279-2.079,1.97-.671,4.163.128,6.459,1.167" transform="translate(-36.723 -54.317)" fill="#17d"/>
    <path id="Path_1278" data-name="Path 1278" d="M124.178,141.815c-2.155.331-6.211.81-6.18-1.272.034-2.282,3.99-1.564,5.973-1.392a1.73,1.73,0,0,1,.207,2.664" transform="translate(-46.489 -54.728)" fill="#17d"/>
    <path id="Path_1279" data-name="Path 1279" d="M148.534,141.8c-1.616.345-5.123.855-5.593-1.021-.689-2.749,5.8-1.978,6.392-1.191a1.365,1.365,0,0,1-.8,2.211" transform="translate(-56.296 -54.708)" fill="#17d"/>
    <path id="Path_1280" data-name="Path 1280" d="M75.518,122.563c2.031-1.556,4.341,4.046,4.145,4.524a1.693,1.693,0,0,1-1.311,1.1c-1.684.362-4.415-4.415-2.834-5.626" transform="translate(-29.566 -48.181)" fill="#17d"/>
    <path id="Path_1281" data-name="Path 1281" d="M88.162,135.195c0,3.574-5.389-.584-5.7-1.277a1.43,1.43,0,0,1,1.135-1.929c1.365-.047,4.568,1.389,4.569,3.206" transform="translate(-32.453 -52.001)" fill="#17d"/>
    <path id="Path_1282" data-name="Path 1282" d="M72.868,93.481c-1.353.287-1.867-1.152-1.879-1.888-.02-1.163-.094-2.8,1.411-2.96,1.347-.145,1.642,1.168,1.7,1.882.079,1.031.174,2.668-1.228,2.966" transform="translate(-27.966 -34.916)" fill="#17d"/>
    <path id="Path_1283" data-name="Path 1283" d="M159.787,139.4c.422,1.019.314,1.559-.085,1.99-.8.867-3.5.875-4.235,0a1.56,1.56,0,0,1,.115-1.95,4.06,4.06,0,0,1,4.2-.041" transform="translate(-61.139 -54.7)" fill="#17d"/>
    <path id="Path_1284" data-name="Path 1284" d="M30.183,131.114a9.782,9.782,0,1,1-9.782-9.782,9.782,9.782,0,0,1,9.782,9.782m-3.147-.011a6.656,6.656,0,1,0-6.656,6.656,6.656,6.656,0,0,0,6.656-6.656" transform="translate(-4.183 -47.803)" fill="#17d"/>
  </g>
</svg>
