<?xml version="1.0" encoding="UTF-8"?><svg id="a" xmlns="http://www.w3.org/2000/svg" viewBox="0 0 50 50"><defs><style>.b{fill:#17d;}</style></defs><path class="b" d="M5.52,9.75c-.6,0-1.08.47-1.08,1.07v2.66c0,.6.48,1.08,1.08,1.08s1.07-.48,1.07-1.08v-2.66c0-.6-.48-1.07-1.07-1.07ZM11.27,8.86c-.6,0-1.08.48-1.08,1.08v2.66c0,.6.48,1.07,1.08,1.07s1.07-.47,1.07-1.07v-2.66c0-.6-.47-1.08-1.07-1.08ZM17.03,7.97c-.6,0-1.08.48-1.08,1.08v2.66c0,.6.48,1.07,1.08,1.08.6-.01,1.07-.48,1.07-1.08v-2.66c0-.6-.47-1.08-1.07-1.08ZM5.52,18.31c-.6,0-1.08.47-1.08,1.07v2.66c0,.6.48,1.08,1.08,1.08s1.07-.48,1.07-1.08v-2.66c0-.6-.48-1.07-1.07-1.07ZM11.27,17.72c-.6,0-1.08.48-1.08,1.08v2.66c0,.6.48,1.07,1.08,1.07s1.07-.47,1.07-1.07v-2.66c0-.6-.47-1.08-1.07-1.08ZM17.03,17.13c-.6,0-1.08.47-1.08,1.07v2.66c0,.6.48,1.08,1.08,1.08s1.07-.48,1.07-1.08v-2.66c0-.6-.47-1.07-1.07-1.07ZM5.52,26.88c-.6,0-1.08.47-1.08,1.07v2.66c0,.6.48,1.08,1.08,1.08s1.07-.48,1.07-1.08v-2.66c0-.6-.48-1.07-1.07-1.07ZM11.27,26.58c-.6,0-1.08.48-1.08,1.08v2.66c0,.6.48,1.08,1.08,1.08s1.07-.48,1.07-1.08v-2.66c0-.6-.47-1.08-1.07-1.08ZM17.03,26.28c-.6,0-1.08.48-1.08,1.08v2.66c0,.6.48,1.07,1.08,1.07s1.07-.47,1.07-1.07v-2.66c0-.6-.47-1.08-1.07-1.08ZM5.52,35.44c-.6,0-1.08.47-1.08,1.07v2.66c0,.6.48,1.08,1.08,1.08s1.07-.48,1.07-1.08v-2.66c0-.6-.48-1.07-1.07-1.07ZM11.27,35.44c-.6,0-1.08.47-1.08,1.07v2.66c0,.6.48,1.08,1.08,1.08s1.07-.48,1.07-1.08v-2.66c0-.6-.47-1.07-1.07-1.07ZM17.03,35.44c-.6,0-1.08.47-1.08,1.07v2.66c0,.6.48,1.08,1.08,1.08s1.07-.48,1.07-1.08v-2.66c0-.6-.47-1.07-1.07-1.07Z"/><path class="b" d="M36.53,37.21c-.6,0-1.08.48-1.08,1.08v2.66c0,.6.48,1.07,1.08,1.07s1.07-.47,1.07-1.07v-2.66c0-.6-.47-1.08-1.07-1.08ZM36.53,20.37c-.6,0-1.08.48-1.08,1.08v2.66c0,.6.48,1.08,1.08,1.08s1.07-.48,1.07-1.08v-2.66c0-.6-.47-1.08-1.07-1.08ZM31.42,37.21c-.6,0-1.08.48-1.08,1.08v2.66c0,.6.48,1.07,1.08,1.07s1.07-.47,1.07-1.07v-2.66c0-.6-.48-1.08-1.07-1.08ZM36.53,28.8c-.6,0-1.08.47-1.08,1.07v2.66c0,.6.48,1.08,1.08,1.08s1.07-.48,1.07-1.08v-2.66c0-.6-.47-1.07-1.07-1.07ZM31.42,29.24c-.6,0-1.08.47-1.08,1.07v2.66c0,.6.48,1.08,1.08,1.08s1.07-.48,1.07-1.08v-2.66c0-.6-.48-1.07-1.07-1.07ZM31.42,21.26c-.6,0-1.08.48-1.08,1.08v2.66c0,.6.48,1.07,1.08,1.07s1.07-.47,1.07-1.07v-2.66c0-.6-.48-1.08-1.07-1.08Z"/><path class="b" d="M49.4,17.83l-7.08-3.55-.24-.08h-.04s-.11-.02-.11-.02h-.04s-.1-.01-.1-.01h-.05s-.05.01-.05.01h-.05s-.04.02-.04.02l-14.13,2.65c-.51.1-.88.55-.88,1.06v29.94h-3.16V2.71l10.25,4.39v4.61c0,.6.47,1.07,1.07,1.08.6-.01,1.08-.48,1.08-1.08v-5.31c0-.43-.26-.82-.66-.99L22.83.11l-.05-.02h-.01s-.01-.01-.01-.01l-.05-.02h-.03s-.06-.03-.06-.03l-.14-.02h-.03s-.2-.01-.2-.01l-.13.02L.86,4.45c-.49.1-.86.55-.86,1.05v43.41c0,.6.48,1.08,1.08,1.08h47.85c.6,0,1.07-.48,1.07-1.08v-30.12c0-.41-.22-.79-.6-.97ZM21.27,47.85H2.16V6.38l19.11-3.99v45.45ZM40.76,47.85h-12.02v-29.05l12.02-2.25v31.3ZM47.85,47.85h-4.93v-30.86l4.93,2.47v28.38Z"/></svg>