<?xml version="1.0" encoding="UTF-8"?><svg id="a" xmlns="http://www.w3.org/2000/svg" viewBox="0 0 50 50"><defs><style>.b{fill:#17d;}</style></defs><path class="b" d="M4.67,20.79c1.14-.21,2.22.15,2.85,1.11.67,1,2.49,8.27,2.95,8.58.05.03.89-.12,1.18-.1,1.28.09,7.98,3.58,9.12,4.52,3.35,2.77,3.18,5.45,3.42,9.34.08,1.26.39,3.08.33,4.28-.08,1.53-1.84,1.84-2.25.51-.7-4.96,1.03-10.11-4.05-13.16-2.04-1.22-4.61-2.23-6.76-3.3-1.1.32-1.01.94-.2,1.56.95.72,5.28,2.81,5.45,3.69.2,1.01-.66,1.62-1.59,1.26s-3.74-2.2-4.73-2.87-1.76-1.11-1.93-2.39c-.09-.7.18-1.29.08-1.9-.21-1.32-2.18-7.16-2.78-8.45-.1-.21-.15-.43-.36-.57-.52.05-.4.61-.37.97.24,2.87,1.15,7.01,1.75,9.92.4,1.95.39,2.52,2.09,3.77,1.85,1.36,6,2.93,7.22,4.54.93,1.23,2.26,5.89,1.8,7.28-.28.84-1.78.87-2.08-.12-.57-1.92-.29-4.38-1.75-6.08-2.97-2.14-8.03-3.41-9.16-7.23s-1.26-8.65-2.24-12.65c.06-1.12.82-2.27,2-2.49Z"/><path class="b" d="M44.49,22.91c-.4.25-2.34,7.83-2.93,8.82.08,1.89.27,2.9-1.39,4.15-.98.73-4.02,2.65-5.09,3.11-1.43.62-2.44-.68-1.43-1.71l5.62-3.52c.34-.55-.17-1.16-.75-1.19-4.03,2.26-9.8,3.35-10.38,8.78-.08.76.04,1.53-.01,2.28-.12,1.86-.26,3.73-.39,5.59-.26.78-1.72.85-2.03.14-.34-.76.04-3.13.07-4.05.19-4.78.06-8.49,4.73-11.27,1.17-.7,6.97-3.64,7.98-3.66.42,0,.77.06,1.17.17l2.73-8.42c.9-1.71,3.27-1.93,4.45-.38.56.74.53,1.38.45,2.28-.28,3.06-1.23,7.6-1.9,10.68-1.18,5.38-5.02,5.36-8.89,8.11-1.89,1.34-1.73,4.16-2.17,6.13-.35,1.55-2.26,1.28-2.31-.12-.05-1.28.7-4.16,1.23-5.38,2.01-4.61,8.71-3.74,9.96-9.2.82-3.56,1.08-7.41,1.91-10.99.04-.3-.4-.49-.61-.36Z"/><path class="b" d="M32.47.79c.04-.15.75-.78,1.01-.7,2.6.25,5.76-.31,8.28,0,.67.08,1.06.47,1.01,1.15l.02,11.76,5.11,3.71c.85,1.08.03,2.3-1.35,1.78-1.55-.58-3.91-3.24-5.58-4.01-.1-.1-.39-.45-.39-.53V2.4c-.15.05-.34-.15-.39-.15h-5.3s-.23.21-.23.23v5.66c0,.54-1.23.92-1.68.57l-8.07-5.87-.4-.08L3.76,18.37c-1.2,1.03-2.73-.41-1.63-1.59L23.89.48l1.56.02,7.03,4.97c.22-1.2-.3-3.63,0-4.67Z"/><path class="b" d="M28.7,15.45c-1.39.12-2.7.79-3.65,1.78-5.33-4.68-12.68,1.2-8.86,7.19l8.29,8.08c.71.18,1.02-.03,1.53-.42,1.35-1.04,7.65-7.26,8.31-8.52,2.06-3.92-1.17-8.48-5.62-8.12ZM32,22.97l-7.1,6.96-6.63-6.51c-2.53-2.78.63-6.96,4.06-5.35.62.29,1.1,1,1.61,1.39.43.33.64.61,1.23.49s1.64-1.53,2.42-1.92c3.23-1.6,6.48,1.9,4.4,4.93Z"/></svg>