<?xml version="1.0" encoding="UTF-8"?><svg id="a" xmlns="http://www.w3.org/2000/svg" viewBox="0 0 50 50"><defs><style>.b{fill:#17d;}</style></defs><path class="b" d="M49.34,24.61c-.59-.73-1.44-1.02-2.31-1.05,0-.14,0-.27,0-.41,0-.6,0-1.2,0-1.8,0-.95-.02-1.9-.16-2.85-1.14-8.07-7.99-14.38-16.14-14.75v-1.55h1.71l.4-.24.03-.02.02-.02c.16-.18.23-.39.23-.6,0-.43-.29-.84-.76-.93h-.02s-.03,0-.03,0c-.21.02-.42.02-.64.02-.99,0-2.06-.09-3.08-.09-.39,0-.77,0-1.15.05-.51.05-.92.44-.93.94,0,.16.05.33.15.49l.02.02.42.34.06.05h1.72v1.55c-5.49.25-10.55,3.24-13.51,7.81-1.71,2.65-2.66,5.72-2.78,8.88,0,.24,0,.48,0,.73,0,.62.02,1.24.02,1.85,0,.19,0,.37,0,.55-.53.06-.99.09-1.52.39-.98.55-1.42,1.49-1.42,2.42,0,1.43,1.05,2.87,2.77,2.92h34.87c1.62-.12,2.69-1.46,2.69-2.87,0-.63-.21-1.26-.66-1.81ZM14.79,17.7c1.25-5.95,6.14-10.75,12.12-11.88.97-.19,1.94-.27,2.89-.27,7.5,0,14.14,5.46,15.25,13.14.13.9.16,1.82.16,2.74,0,.58,0,1.16,0,1.73v.38H14.44c0-.45,0-.91,0-1.35,0-1.52.05-3.02.35-4.5ZM47.2,27.46h0s-34.71,0-34.71,0c-.67-.07-.98-.54-.99-1.02,0-.47.31-.95,1.12-1.03h0c.14-.02.28-.02.44-.02h.2c5.53.08,11.07.11,16.62.11s10.98-.03,16.45-.11h.31c.32,0,.64.02.88.11.24.1.43.24.55.54.06.14.08.27.08.4,0,.51-.38.96-.95,1.03Z"/><path class="b" d="M39.17,35.93c0,.64-.22,1.31-.71,1.91l-.03.03c-4.7,3.7-9.51,7.34-14.37,10.85h0s-.02.02-.02.02c-.63.29-1.22.41-1.81.41-.51,0-1.03-.08-1.58-.22-2.53-.61-5.17-1.59-7.65-2.07h0c-.17-.04-.41-.08-.57-.08h-.03c-.5,0-1.29.49-2.06,1.09-.76.59-1.52,1.26-2.1,1.62-.21.14-.42.2-.63.2-.24,0-.47-.1-.64-.25-.16-.16-.24-.38-.24-.62,0-.24.1-.5.3-.73l.02-.02h.02c.92-.6,1.7-1.35,2.54-1.97.84-.63,1.75-1.12,2.92-1.12.3,0,.63.03.96.11,2.75.58,5.52,1.62,8.24,2.2h.02c.13.02.26.02.37.02.63,0,1.05-.19,1.64-.58h0l13.06-9.88h0c.34-.27.49-.63.49-.96,0-.61-.47-1.18-1.22-1.18h-.2c-.13.03-.2.06-.27.11-.07.04-.16.11-.29.18-3.33,1.69-6.62,3.52-10.01,5.12-.17.08-.38.23-.67.24h-.02c-.23,0-.57-.11-.93-.23-.36-.11-.73-.24-.92-.29-1.62-.5-3.15-1.15-4.77-1.53-.51-.13-.89-.24-1.27-.24-.24,0-.49.05-.78.18-.1.03-.28.17-.49.29-.22.12-.43.24-.68.25l-.25-.07-.05-.03-.5-1.07v-.1c0-.19.11-.3.2-.38.1-.09.21-.15.25-.19.76-.53,1.56-.73,2.33-.73,1.19,0,2.35.43,3.51.79.24.08.57.22.88.33.32.12.64.21.8.21h.02c.46-.02.71-.37.71-.76,0-.28-.13-.57-.43-.73-2.78-.9-5.54-2.2-8.28-3.05-.57-.18-1.1-.26-1.61-.26-.88,0-1.7.26-2.55.81,0,0,0,0,0,0l-8.41,6.35h0c-.17.1-.33.14-.49.14-.53,0-.9-.45-.9-.93,0-.28.14-.58.42-.77,2.81-1.95,5.47-4.36,8.33-6.28,1.15-.77,2.37-1.17,3.64-1.17.63,0,1.27.09,1.93.28,2.79.8,5.58,2.19,8.33,3.05,1.16.35,1.89,1.41,1.88,2.55,0,.35-.07.72-.22,1.07-.08.18-.19.31-.24.43.19.06.33.13.45.12h.09c3.23-1.65,6.45-3.32,9.69-4.96.14-.07.28-.2.49-.29.46-.22.92-.32,1.35-.31,1.7,0,3.03,1.45,3.03,3.07Z"/><path class="b" d="M41.36,19.23c0,.28-.02.58-.14.83-.12.26-.38.47-.74.46-.09,0-.19,0-.29-.03-.29-.06-.5-.26-.58-.48-.09-.23-.1-.46-.1-.68v-.47c-.16-1.88-.73-3.86-1.78-5.44-1.05-1.57-2.56-2.71-4.59-2.98h-.17s-.23,0-.23,0c-.18,0-.39-.03-.61-.18-.26-.19-.39-.48-.39-.76v-.02c0-.38.26-.78.73-.86.13-.02.26-.03.41-.03.75,0,1.71.24,2.31.47,3.83,1.45,5.97,5.88,6.14,9.73,0,.14.02.28.02.44Z"/></svg>