<svg xmlns="http://www.w3.org/2000/svg" width="156.664" height="125.331" viewBox="0 0 156.664 125.331">
  <path id="Path_1299" data-name="Path 1299" d="M142.922,95.376c17.568,0,29.408,12.442,29.408,30.877,0,16.589-13.608,30.41-32.038,30.41-20.187,0-35.1-16.589-35.1-41.929,0-57.6,41.247-80.633,67.142-83.4V56.672c-17.558,3.224-37.3,21.192-38.182,41.017A19.369,19.369,0,0,1,142.922,95.376Zm-89.511,0c17.546,0,29.4,12.442,29.4,30.877,0,16.589-13.607,30.41-32.038,30.41-20.187,0-35.1-16.589-35.1-41.929,0-57.6,41.247-80.633,67.141-83.4V56.672C65.25,59.9,45.511,77.864,44.627,97.689A19.374,19.374,0,0,1,53.411,95.376Z" transform="translate(-15.666 -31.333)" fill="#17d"/>
</svg>
