<?xml version="1.0" encoding="UTF-8"?><svg id="a" xmlns="http://www.w3.org/2000/svg" viewBox="0 0 50 50"><defs><style>.h{fill:#17d;}</style></defs><path id="b" class="h" d="M1.11,43.56c-.61,0-1.11-.5-1.11-1.11H0V10.05C0,6.15,3.16,2.98,7.06,2.98c.62,0,1.11.5,1.11,1.11v1.86h30.56c.62,0,1.11.5,1.11,1.11s-.5,1.11-1.11,1.11H8.18v30.7c0,.62-.5,1.11-1.11,1.11s-1.11-.5-1.11-1.11V5.33c-2.18.52-3.72,2.47-3.72,4.71v32.4c0,.62-.5,1.11-1.11,1.11h0M45.91,22.25c-.62,0-1.11-.5-1.11-1.11h0v-12.84c0-.62.5-1.11,1.11-1.11s1.11.5,1.11,1.11v12.84c0,.62-.5,1.11-1.11,1.11h0"/><path id="c" class="h" d="M4.63,47.03c-1.23,0-2.4-.49-3.27-1.36C.5,44.82.01,43.66,0,42.46v-.06c0-2.56,2.08-4.63,4.63-4.63h2.43c.62,0,1.11.5,1.11,1.11s-.5,1.11-1.11,1.11h-2.43c-1.33,0-2.4,1.07-2.41,2.4,0,1.33,1.07,2.4,2.4,2.41h16.5c.62,0,1.11.5,1.11,1.11s-.5,1.11-1.11,1.11H4.63Z"/><path id="d" class="h" d="M48.88,50h-30.72c-.62,0-1.11-.5-1.11-1.11,0-.3.12-.58.33-.79l30.72-30.72c.44-.44,1.14-.44,1.58,0,.21.21.33.49.33.79v30.72c0,.62-.5,1.11-1.11,1.11h0M20.85,47.77h26.92v-26.92l-26.92,26.92Z"/><path id="e" class="h" d="M42.94,44.05h-10.42c-.62,0-1.11-.5-1.11-1.11,0-.3.12-.58.33-.79l10.42-10.42c.44-.44,1.14-.44,1.58,0,.21.21.33.49.33.79v10.42c0,.62-.5,1.11-1.11,1.11h0M35.21,41.82h6.62v-6.62l-6.62,6.62Z"/><path id="f" class="h" d="M44.68,10.64h0c-.3,0-.58-.12-.79-.33l-4.2-4.2c-.44-.43-.44-1.14,0-1.58,0,0,0,0,0,0L43.89.33c.43-.44,1.14-.44,1.57,0,0,0,0,0,0,0l4.2,4.2c.43.44.43,1.14,0,1.58l-4.2,4.2c-.21.21-.49.33-.79.33M42.05,5.32l2.63,2.63,2.63-2.63-2.63-2.63-2.63,2.63Z"/><path id="g" class="h" d="M28.47,29.98h-15.46c-.62,0-1.11-.5-1.11-1.11s.5-1.11,1.11-1.11h15.46c.62,0,1.11.5,1.11,1.11s-.5,1.11-1.11,1.11M21.53,24.03h-8.52c-.62,0-1.11-.5-1.11-1.11s.5-1.11,1.11-1.11h8.52c.62,0,1.11.5,1.11,1.11s-.5,1.11-1.11,1.11M27.51,23.6c-.62,0-1.12-.5-1.12-1.12,0-.05,0-.11.01-.16l.7-4.9c.03-.24.14-.46.32-.63l12.27-12.26c.43-.44,1.14-.44,1.58,0,0,0,0,0,0,0l4.2,4.2c.44.43.44,1.14,0,1.58,0,0,0,0,0,0l-12.26,12.26c-.17.17-.39.28-.63.32l-4.9.7c-.05,0-.1.01-.16.01M29.26,18.11l-.44,3.07,3.07-.44,11.21-11.21-2.63-2.63-11.21,11.21ZM21.53,18.09h-8.52c-.62,0-1.11-.5-1.11-1.11s.5-1.11,1.11-1.11h8.52c.62,0,1.11.5,1.11,1.11s-.5,1.11-1.11,1.11"/></svg>