<?xml version="1.0" encoding="UTF-8"?><svg id="a" xmlns="http://www.w3.org/2000/svg" viewBox="0 0 50 50"><defs><style>.h{fill:#17d;}</style></defs><path id="b" class="h" d="M42.78,18.11c.31.27.77.27,1.09,0,.25-.22,6.12-5.32,6.12-11.47C49.96,2.96,46.95,0,43.27.03c-3.63.03-6.57,2.97-6.61,6.61,0,6.14,5.87,11.25,6.12,11.47h0ZM43.33,1.64c2.76,0,5,2.24,5,5,0,4.35-3.6,8.32-5,9.69-1.4-1.37-5-5.34-5-9.69,0-2.76,2.24-5,5-5"/><path id="c" class="h" d="M46.66,6.64c0-1.84-1.49-3.33-3.33-3.33s-3.33,1.49-3.33,3.33c0,1.84,1.49,3.33,3.33,3.33h0c1.84,0,3.33-1.49,3.33-3.33M41.66,6.64c0-.92.75-1.67,1.67-1.67.92,0,1.67.75,1.67,1.67,0,.92-.75,1.67-1.67,1.67-.92,0-1.66-.75-1.67-1.67"/><path id="d" class="h" d="M41.66,26.64h-4.17c-1.38-.06-2.45-1.23-2.38-2.61.06-1.29,1.09-2.32,2.38-2.38h5.83c.46,0,.83-.37.83-.83s-.37-.83-.83-.83h-5.83c-2.3,0-4.17,1.86-4.17,4.16,0,2.3,1.86,4.17,4.16,4.17h4.17c3.68.03,6.64,3.04,6.61,6.73-.03,3.63-2.97,6.57-6.61,6.61h-7.5c-.46,0-.83.37-.83.83s.37.83.83.83h7.5c4.6,0,8.34-3.72,8.34-8.32,0-4.6-3.72-8.34-8.32-8.34h-.01"/><path id="e" class="h" d="M31.17,26.71l-15-6.67c-.22-.1-.46-.1-.68,0L.49,26.71C.19,26.84,0,27.14,0,27.47v15c0,.33.19.63.49.76l15,6.67c.11.05.22.07.34.07.12,0,.23-.02.34-.07l15-6.67c.3-.13.49-.43.5-.76v-15c0-.33-.2-.63-.5-.76ZM23.79,25.25l-12.94,5.75-2.96-1.31,12.95-5.75,2.96,1.31h0ZM10,32.46v3.45l-1.21-.8c-.14-.09-.3-.14-.46-.14h-1.67v-3.99l3.33,1.48ZM15.83,21.72l2.95,1.31-12.95,5.75-2.95-1.31,12.95-5.75ZM15,47.85l-13.33-5.93v-13.18l3.33,1.48v5.57c0,.46.37.83.83.83h2.25l2.29,1.53c.14.09.3.14.46.14.46,0,.83-.37.83-.83h0v-4.27l3.33,1.48v13.18ZM15.83,33.22l-2.94-1.31,12.95-5.75,2.94,1.31-12.95,5.75ZM30,41.93l-13.33,5.93v-13.18l13.33-5.93v13.18Z"/><path id="f" class="h" d="M24.16,42.47c.13,0,.26-.03.37-.09l3.33-1.67c.41-.21.58-.71.37-1.12s-.71-.58-1.12-.37l-3.33,1.67c-.41.21-.58.71-.37,1.12.14.28.43.46.75.46h0Z"/><path id="g" class="h" d="M24.16,39.13c.13,0,.26-.03.37-.09l3.33-1.67c.41-.21.58-.71.37-1.12s-.71-.58-1.12-.37h0l-3.33,1.67c-.41.21-.58.71-.37,1.12.14.28.43.46.75.46h0Z"/></svg>