<?xml version="1.0" encoding="UTF-8"?><svg id="a" xmlns="http://www.w3.org/2000/svg" viewBox="0 0 50 50"><defs><style>.c{fill:#17d;}</style></defs><path id="b" class="c" d="M49.93,37.32l-4.01-17.05c-.34-1.43-1.77-2.32-3.21-1.99l-.85.2V1.21C41.87.54,41.33,0,40.66,0h-24.53c-.32,0-.63.13-.86.35l-6.78,6.77c-.23.23-.35.53-.35.86v10.49l-.85-.2c-1.43-.33-2.87.55-3.21,1.99L.07,37.31c-.34,1.44.55,2.87,1.99,3.21l3.72.87c.93.22,1.91-.08,2.56-.78l8.31,8.28c.71.71,1.66,1.1,2.66,1.1h0c1.49,0,2.83-.88,3.44-2.23l.39.39c.69.71,1.63,1.12,2.62,1.14.31,0,.63-.04.93-.12,1.13-.32,2.07-1.11,2.56-2.18.63.51,1.41.8,2.22.8,2.02-.06,3.68-1.62,3.86-3.64.93-.07,1.81-.48,2.46-1.15.59-.58.98-1.34,1.12-2.16.16.02.33.03.5.03.63,0,1.25-.13,1.83-.39l.23-.1c.63.86,1.72,1.26,2.75,1.02l3.72-.87c1.43-.34,2.32-1.77,1.99-3.21h0ZM15.49,3.56v3.8h-3.8l3.8-3.8ZM10.56,9.77h6.14c.67,0,1.21-.54,1.21-1.21V2.42h21.54v16.62l-.45.11c-1.43.34-2.32,1.77-1.99,3.21l.21.92-.06.02c-1.01.39-2.14.32-3.1-.18l-5.12-2.57c-2.48-1.27-5.51-.75-7.42,1.27h-8.46c.03-1.26-.83-2.37-2.06-2.66l-.45-.11v-9.27ZM6.33,39.04l-3.72-.87c-.06-.02-.12-.06-.15-.11-.04-.06-.05-.12-.03-.19l4.01-17.06h0c.02-.06.06-.12.11-.15.04-.03.09-.04.13-.04.02,0,.04,0,.05,0l3.72.87c.13.03.21.17.18.3l-4.01,17.05c-.03.13-.17.22-.3.19ZM36.53,40.38c-.08.71-.64,1.27-1.35,1.36-.37,0-.73-.15-.98-.43l-6.07-6.05c-.47-.47-1.24-.47-1.71,0-.47.47-.47,1.24,0,1.71h0l6.07,6.05c.51.54.5,1.39-.04,1.91-.52.5-1.34.5-1.86,0l-6.5-6.48c-.47-.48-1.23-.48-1.71-.01-.48.47-.48,1.23-.01,1.71,0,0,.01.01.02.02l4.38,4.37h0c.35.3.5.77.39,1.21-.15.52-.56.93-1.08,1.08-.45.11-.92-.04-1.21-.39l-4.82-4.8c-.47-.48-1.23-.48-1.71-.01-.48.47-.48,1.23-.01,1.71,0,0,.01.01.02.02l1.94,1.93c.53.52.53,1.37,0,1.9-.25.25-.6.4-.96.4h0c-.36,0-.7-.14-.95-.39l-9.08-9.04,3.27-13.91h6.81l-4.33,4.86c-1.04,1.17-.94,2.97.23,4.01.17.15.36.28.56.39,2.36,1.24,5.2,1.09,7.41-.39l2.52-1.68c.81-.55,1.9-.44,2.59.26l7.75,7.73c.28.25.43.6.42.97h0ZM37.97,37.85l-7.91-7.89c-1.5-1.52-3.87-1.75-5.64-.56l-2.52,1.68c-1.47.99-3.37,1.09-4.94.27-.21-.11-.29-.36-.18-.57.02-.03.04-.06.06-.08l6.33-7.1c1.17-1.34,3.11-1.71,4.69-.9l5.12,2.57c1.49.76,3.22.9,4.8.37l2.92,12.44-.44.2c-.77.36-1.69.19-2.29-.42h0ZM47.54,38.06c-.03.06-.09.1-.16.11l-3.72.87c-.13.03-.27-.05-.3-.19l-4-17.05c-.02-.06,0-.13.03-.19.03-.06.09-.1.15-.11l3.72-.87s.04,0,.06,0c.12,0,.22.08.25.19l4.01,17.05c.01.06,0,.13-.03.19h0ZM13.8,15.17c0-.67.54-1.21,1.21-1.21h19.98c.67.02,1.2.57,1.18,1.24-.02.65-.54,1.17-1.18,1.18H15.01c-.67,0-1.21-.54-1.21-1.21M22.15,9.64c0-.67.54-1.21,1.21-1.21h11.63c.67,0,1.21.54,1.21,1.21,0,.67-.54,1.21-1.21,1.21h-11.63c-.67,0-1.21-.54-1.21-1.21h0"/></svg>