<?xml version="1.0" encoding="UTF-8"?><svg id="a" xmlns="http://www.w3.org/2000/svg" viewBox="0 0 50 50"><defs><style>.c{fill:#17d;}</style></defs><path id="b" class="c" d="M45.01,31.37c-.44-.26-.93-.44-1.44-.53,0-.02,0-.05,0-.07v-11.56s0-.05,0-.07c2.43-.45,4.05-2.78,3.6-5.22s-2.78-4.05-5.22-3.6c-1.02.19-1.94.72-2.61,1.51-.02-.01-.04-.02-.06-.04l-10.01-5.78s-.04-.02-.07-.03c.18-.48.26-1,.26-1.51C29.47,2,27.47,0,24.99,0c-2.47,0-4.48,2.01-4.47,4.49,0,.51.09,1.02.26,1.5-.02,0-.05.02-.07.03l-10.01,5.78s-.04.03-.06.04c-.33-.39-.73-.72-1.18-.98-2.14-1.24-4.88-.5-6.12,1.65-1.24,2.14-.5,4.88,1.65,6.12.44.26.93.43,1.43.53,0,.02,0,.05,0,.07v11.56s0,.05,0,.07c-.51.09-.99.27-1.44.53-2.14,1.24-2.86,3.98-1.62,6.12,1.24,2.14,3.98,2.86,6.12,1.62.44-.25.83-.58,1.16-.97.02.01.04.03.06.04l10.01,5.78s.04.03.07.03c-.84,2.33.38,4.9,2.71,5.73,2.33.84,4.9-.38,5.73-2.71.35-.98.35-2.05,0-3.03.02,0,.05-.02.07-.03l10.01-5.78s.04-.02.06-.04c.33.39.73.72,1.18.98,2.14,1.24,4.88.5,6.12-1.64s.5-4.88-1.64-6.12h0ZM10.64,32.36c-.67-.79-1.59-1.33-2.62-1.51,0-.02,0-.05,0-.07v-11.56s0-.05,0-.08c1.02-.18,1.94-.72,2.61-1.51.02.01.04.03.06.04l10.01,5.78s.04.02.07.03c-.35.98-.35,2.04,0,3.02-.02.01-.04.02-.07.03l-10.01,5.78s-.04.02-.06.04ZM24.19,41.1c-1.02.19-1.94.72-2.61,1.51-.02-.01-.04-.03-.06-.04l-10.01-5.78s-.04-.03-.07-.04c.35-.98.35-2.04,0-3.02.02-.01.04-.02.07-.03l10.01-5.78s.04-.02.06-.04c.67.79,1.59,1.33,2.61,1.51,0,.02,0,.05,0,.07v11.56s0,.05,0,.07M24.19,20.58c-1.02.19-1.94.72-2.61,1.51-.02-.01-.04-.03-.06-.04l-10.01-5.78s-.04-.02-.07-.03c.35-.98.35-2.04,0-3.02.02,0,.05-.02.07-.04l10.01-5.78s.04-.03.06-.04c.67.79,1.6,1.33,2.62,1.51v11.71M25.8,8.88c1.02-.19,1.95-.72,2.62-1.51.02.01.04.02.06.04l10.01,5.78s.04.03.07.04c-.35.98-.35,2.04,0,3.02-.02.01-.04.02-.06.03l-10.01,5.78s-.05.02-.07.04c-.67-.79-1.6-1.33-2.62-1.51,0-.02,0-.05,0-.07v-11.56s0-.04,0-.07M38.55,36.76s-.04.02-.07.04l-10.01,5.78s-.04.02-.06.04c-.67-.79-1.6-1.33-2.62-1.51,0-.02,0-.05,0-.07v-11.56s0-.05,0-.07c1.02-.18,1.95-.72,2.62-1.51.02.01.04.03.07.04l10.01,5.78s.04.02.06.03c-.35.98-.35,2.04,0,3.02M41.96,30.85c-1.02.19-1.95.72-2.62,1.51-.02-.01-.04-.03-.06-.04l-10.01-5.78s-.04-.02-.07-.03c.35-.98.35-2.05,0-3.03.02,0,.05-.02.07-.03l10.01-5.78s.04-.02.06-.04c.67.79,1.6,1.32,2.62,1.51,0,.02,0,.05,0,.08v11.56s0,.05,0,.07"/></svg>