<svg id="Group_184" data-name="Group 184" xmlns="http://www.w3.org/2000/svg" xmlns:xlink="http://www.w3.org/1999/xlink" width="373.1" height="48.24" viewBox="0 0 373.1 48.24">
  <defs>
    <clipPath id="clip-path">
      <rect id="Rectangle_675" data-name="Rectangle 675" width="373.1" height="48.24" fill="#fff"/>
    </clipPath>
  </defs>
  <g id="Group_183" data-name="Group 183" clip-path="url(#clip-path)">
    <path id="Path_1235" data-name="Path 1235" d="M41.987,48.24H19.734a1.055,1.055,0,0,1,.189-.79L30.781,32.2,19.624,16.657.44,16.768,11.368,32.231,0,48.049.025,13.585C1.576,6.638,6.6,1.332,13.747.33A45.527,45.527,0,0,1,24.371.293,16.1,16.1,0,0,1,37.634,11.011a15.543,15.543,0,0,1-2.045,14.68l-4.6,6.547L41.494,46.922c.331.462.644.825.493,1.318" transform="translate(0 0)" fill="#fff"/>
    <path id="Path_1236" data-name="Path 1236" d="M348.085,88.283H341.83a2.3,2.3,0,0,0-1.184-.536,16.685,16.685,0,0,1,1-32.433A17.157,17.157,0,0,1,357.9,61.022a16.825,16.825,0,0,1,3.375,13.915l-23.767.049a6.035,6.035,0,0,0,3.981,4.485,8.872,8.872,0,0,0,8.84-1.342l9.891.175a16.708,16.708,0,0,1-11.18,9.515,1.685,1.685,0,0,0-.958.465m4.419-20.1a8.315,8.315,0,0,0-8.52-4.863,7.487,7.487,0,0,0-6.439,4.907Z" transform="translate(-239.051 -40.043)" fill="#fff"/>
    <path id="Path_1237" data-name="Path 1237" d="M911.074,55.332h-5.983c-.26-.3-.726-.349-1.219-.481a16.644,16.644,0,0,1,6.418-32.609A15.143,15.143,0,0,1,920.333,28.6l.127-18.785a27.069,27.069,0,0,1,4.116,0l-.078,29.74c-.019,7.388-5.5,13.462-12.43,15.3a1.7,1.7,0,0,0-.993.476m9.518-16.617a12.569,12.569,0,1,0-12.569,12.569,12.569,12.569,0,0,0,12.569-12.569" transform="translate(-648.931 -7.093)" fill="#fff"/>
    <path id="Path_1238" data-name="Path 1238" d="M1200.522,88.283h-5.983a2.256,2.256,0,0,0-1.18-.525,16.65,16.65,0,1,1,20.86-16.336l.031,16.247a7.078,7.078,0,0,1-4.273,0c-.131-2.078.23-3.885-.168-6.135a14.579,14.579,0,0,1-8.585,6.287,1.323,1.323,0,0,0-.7.457m9.682-16.638a12.564,12.564,0,1,0-12.564,12.564A12.564,12.564,0,0,0,1210.2,71.645" transform="translate(-859.784 -40.044)" fill="#fff"/>
    <path id="Path_1239" data-name="Path 1239" d="M777.133,88.27h-5.983c-.144-.219-.379-.3-.769-.39a16.676,16.676,0,1,1,7.482-.024,1.3,1.3,0,0,0-.73.414m9.548-16.638A12.567,12.567,0,1,0,774.114,84.2a12.567,12.567,0,0,0,12.567-12.567" transform="translate(-551.431 -40.03)" fill="#fff"/>
    <path id="Path_1240" data-name="Path 1240" d="M1049.542,89.651h-6.255a1.552,1.552,0,0,0-.976-.446c-7.1-1.655-10.052-7.933-10.049-14.8l.008-17.454a23.235,23.235,0,0,1,4.08.037l.1,17.644c.03,5.306,2.6,10.244,8.331,10.916,3.076.36,6.31-.177,8.551-2.454a11.239,11.239,0,0,0,3.029-7.9l.123-18.208a22.406,22.406,0,0,1,4.07-.034l.03,17.724c.012,6.838-3.242,13.023-10.293,14.586a1.108,1.108,0,0,0-.75.383" transform="translate(-751.501 -41.411)" fill="#fff"/>
    <path id="Path_1241" data-name="Path 1241" d="M1333.517,56.146v3.961c-2.385.018-4.908.283-6.781,2.088a10.394,10.394,0,0,0-3.127,7.345l-.149,18.925a6.561,6.561,0,0,1-4.232.013l.046-17.6a18.872,18.872,0,0,1,1.555-7.583c2.342-5.382,7.242-7.408,12.687-7.152" transform="translate(-960.417 -40.859)" fill="#fff"/>
    <path id="Path_1242" data-name="Path 1242" d="M235.935,54.974l-7.9-16.244c-.321-.66-2.463-.583-2.7.09l-.163,16.2a38.3,38.3,0,0,1-8.44-.142l-.012-45.007,15.562.014a13.655,13.655,0,0,1,9.6,4.172,13.967,13.967,0,0,1,3.4,13.916,14.466,14.466,0,0,1-9.247,9.62l8.828,17.4a53,53,0,0,1-8.932-.021m.6-27.317a8.3,8.3,0,0,0,.118-7.287c-2.011-4.14-7.2-2.754-11.422-2.942l-.045,6.723.063,6.639,6.231.035a5.505,5.505,0,0,0,5.056-3.169" transform="translate(-157.78 -7.187)" fill="#fff"/>
    <path id="Path_1243" data-name="Path 1243" d="M615.222,54.734l-.2-35.163L597.895,54.6c-1.026.726-2.745.45-3.942.048l-17.148-35.2L576.69,54.66a6.5,6.5,0,0,1-4.182.056l.017-44.9a19.52,19.52,0,0,1,4.216.024L595.966,49.08,615.127,9.8a27.345,27.345,0,0,1,4.182-.005l.019,45.107a11.32,11.32,0,0,1-4.106-.165" transform="translate(-416.794 -7.07)" fill="#fff"/>
    <path id="Path_1244" data-name="Path 1244" d="M478.919,89.094a41.456,41.456,0,0,1-9.537-.049l-6.6-9.645-6.705,9.649a47.445,47.445,0,0,1-9.606.1l11.47-16.864L447.419,56.815l9.548.057,5.73,8.4,5.815-8.423,9.638-.063L467.516,72.254Z" transform="translate(-325.038 -41.343)" fill="#fff"/>
    <rect id="Rectangle_674" data-name="Rectangle 674" width="45.422" height="4.24" transform="translate(313.451 47.967) rotate(-89.915)" fill="#fff"/>
  </g>
</svg>
