<svg id="Group_262" data-name="Group 262" xmlns="http://www.w3.org/2000/svg" xmlns:xlink="http://www.w3.org/1999/xlink" width="469.32" height="538.904" viewBox="0 0 469.32 538.904">
  <defs>
    <clipPath id="clip-path">
      <rect id="Rectangle_677" data-name="Rectangle 677" width="469.32" height="538.904" fill="#c4def8"/>
    </clipPath>
  </defs>
  <g id="Group_261" data-name="Group 261" clip-path="url(#clip-path)">
    <path id="Path_1266" data-name="Path 1266" d="M469.028,538.9H220.454c-.541-3.409.3-6.931,3.4-10.626L343.864,359.711,219.229,186.071,4.919,187.329,127,360.066,0,536.769.283,151.763C17.6,74.148,73.786,14.88,153.571,3.686c38.118-5.345,79.757-4.336,118.686-.422C342.236,10.3,396.707,59.78,420.428,123c21.254,56.646,11.349,115.325-22.852,164l-51.39,73.145L463.562,524.174c3.692,5.156,6.736,9.27,5.466,14.731" transform="translate(0 -0.001)" fill="#c4def8" opacity="0.3"/>
  </g>
</svg>
