<svg xmlns="http://www.w3.org/2000/svg" xmlns:xlink="http://www.w3.org/1999/xlink" width="306.549" height="352" viewBox="0 0 306.549 352">
  <defs>
    <clipPath id="clip-path">
      <rect id="Rectangle_677" data-name="Rectangle 677" width="306.549" height="352" fill="#f1f1f1"/>
    </clipPath>
  </defs>
  <g id="Group_262" data-name="Group 262" transform="translate(18.747)">
    <g id="Group_261" data-name="Group 261" transform="translate(-18.747)" clip-path="url(#clip-path)">
      <path id="Path_1266" data-name="Path 1266" d="M306.359,352H144a8.371,8.371,0,0,1,2.223-6.94L224.6,234.955,143.2,121.537l-139.982.822L82.951,235.187,0,350.605.185,99.128C11.5,48.432,48.2,9.719,100.309,2.408c24.9-3.491,52.1-2.832,77.523-.276,45.709,4.594,81.288,36.915,96.782,78.208,13.883,37,7.413,75.328-14.927,107.122l-33.567,47.777,76.668,107.14c2.411,3.368,4.4,6.055,3.57,9.622" transform="translate(0 0)" fill="#f1f1f1"/>
    </g>
  </g>
</svg>
